<?xml version="1.0" standalone="no"?>
<!DOCTYPE svg PUBLIC "-//W3C//DTD SVG 20010904//EN"
 "http://www.w3.org/TR/2001/REC-SVG-20010904/DTD/svg10.dtd">
<svg version="1.0" xmlns="http://www.w3.org/2000/svg"
 width="200.000000pt" height="200.000000pt" viewBox="0 0 200.000000 200.000000"
 preserveAspectRatio="xMidYMid meet">
<metadata>
Created by potrace 1.14, written by Peter Selinger 2001-2017
</metadata>
<g transform="translate(0.000000,200.000000) scale(0.100000,-0.100000)"
fill="#000000" stroke="none">
<path d="M190 1238 c-56 -30 -82 -110 -53 -162 4 -8 100 -110 213 -226 216
-223 237 -238 303 -219 22 6 79 58 188 171 l156 161 164 -166 c91 -92 172
-168 182 -168 9 -1 24 -1 32 -1 8 0 24 0 36 1 18 1 406 384 446 440 20 29 19
95 -1 126 -24 37 -76 59 -119 51 -28 -5 -66 -38 -196 -170 l-162 -163 -161
163 c-109 111 -170 165 -189 169 -61 14 -84 -2 -236 -156 -80 -82 -150 -154
-154 -160 -4 -6 -12 -10 -19 -7 -6 2 -82 75 -169 161 -141 142 -161 159 -197
163 -22 3 -50 -1 -64 -8z"/>
</g>
</svg>
