<svg width="32" height="32" viewBox="0 0 32 32" fill="none" xmlns="http://www.w3.org/2000/svg">
<path d="M16.0001 16C14.457 16 12.9771 15.387 11.886 14.2959C10.7949 13.2048 10.1819 11.7249 10.1819 10.1818V1.45455C10.1819 1.06878 10.3351 0.698807 10.6079 0.426026C10.8807 0.153246 11.2507 0 11.6364 0H20.3637C20.7495 0 21.1194 0.153246 21.3922 0.426026C21.665 0.698807 21.8182 1.06878 21.8182 1.45455V10.1818C21.8182 11.7249 21.2053 13.2048 20.1141 14.2959C19.023 15.387 17.5431 16 16.0001 16ZM13.091 2.90909V10.1818C13.091 10.9534 13.3975 11.6933 13.943 12.2389C14.4886 12.7844 15.2285 13.0909 16.0001 13.0909C16.7716 13.0909 17.5115 12.7844 18.0571 12.2389C18.6027 11.6933 18.9092 10.9534 18.9092 10.1818V2.90909H13.091Z" fill="#E9793A"/>
<path d="M6.54558 16C5.5356 16.0197 4.53635 15.7899 3.63649 15.3309C2.53929 14.7922 1.61615 13.9552 0.972965 12.9158C0.329783 11.8764 -0.0073908 10.6768 0.000122891 9.45455C0.000321296 9.28588 0.0298522 9.11854 0.0873955 8.96L2.99649 0.96C3.09812 0.678879 3.2839 0.4359 3.52855 0.264126C3.7732 0.0923526 4.06483 0.000127185 4.36376 0H11.6365C12.0223 0 12.3922 0.153246 12.665 0.426026C12.9378 0.698807 13.091 1.06878 13.091 1.45455V9.45455C13.0872 11.1893 12.3963 12.852 11.1697 14.0786C9.94299 15.3053 8.28036 15.9962 6.54558 16ZM2.90921 9.68727C2.95348 10.3296 3.16819 10.9486 3.53124 11.4804C3.89428 12.0122 4.39253 12.4376 4.97467 12.7127C5.45933 12.9658 5.99884 13.0957 6.54558 13.0909C7.51 13.0909 8.43492 12.7078 9.11687 12.0258C9.79882 11.3439 10.1819 10.419 10.1819 9.45455V2.90909H5.38194L2.90921 9.68727Z" fill="#E9793A"/>
<path d="M25.4546 16C23.7199 15.9962 22.0572 15.3053 20.8305 14.0786C19.6039 12.852 18.913 11.1893 18.9092 9.45455V1.45455C18.9092 1.06878 19.0624 0.698807 19.3352 0.426026C19.608 0.153246 19.978 0 20.3637 0H27.6365C27.9354 0.000127185 28.227 0.0923526 28.4717 0.264126C28.7163 0.4359 28.9021 0.678879 29.0037 0.96L31.9128 8.96C31.9704 9.11854 31.9999 9.28588 32.0001 9.45455C31.9991 10.6935 31.6458 11.9066 30.9813 12.9522C30.3168 13.9979 29.3686 14.833 28.2474 15.36C27.3807 15.7928 26.4232 16.0122 25.4546 16ZM21.8183 2.90909V9.45455C21.8183 10.419 22.2014 11.3439 22.8833 12.0258C23.5653 12.7078 24.4902 13.0909 25.4546 13.0909C25.96 13.0889 26.458 12.9694 26.9092 12.7418C27.5153 12.4779 28.0385 12.0544 28.4227 11.5164C28.807 10.9785 29.038 10.3462 29.091 9.68727L26.6183 2.90909H21.8183Z" fill="#E9793A"/>
<path d="M27.6365 32H4.36373C3.97796 32 3.60799 31.8468 3.33521 31.574C3.06243 31.3012 2.90918 30.9312 2.90918 30.5455V14.0364C2.91022 13.7878 2.97494 13.5436 3.09716 13.3272C3.21939 13.1108 3.39504 12.9293 3.60736 12.8C3.82848 12.6723 4.07931 12.6051 4.33463 12.6051C4.58996 12.6051 4.84079 12.6723 5.06191 12.8C5.51312 13.0276 6.01109 13.1471 6.51645 13.1491C7.00136 13.153 7.48217 13.0599 7.93057 12.8753C8.37897 12.6907 8.78591 12.4182 9.12745 12.074C9.46899 11.7297 9.73822 11.3206 9.91931 10.8708C10.1004 10.4209 10.1897 9.93941 10.1819 9.45455C10.1819 9.06878 10.3352 8.69881 10.6079 8.42603C10.8807 8.15325 11.2507 8 11.6365 8C12.0222 8 12.3922 8.15325 12.665 8.42603C12.9378 8.69881 13.091 9.06878 13.091 9.45455V10.1818C13.091 10.9534 13.3975 11.6933 13.9431 12.2389C14.4886 12.7844 15.2285 13.0909 16.0001 13.0909C16.7716 13.0909 17.5116 12.7844 18.0571 12.2389C18.6027 11.6933 18.9092 10.9534 18.9092 10.1818V9.45455C18.9092 9.06878 19.0624 8.69881 19.3352 8.42603C19.608 8.15325 19.978 8 20.3637 8C20.7495 8 21.1195 8.15325 21.3922 8.42603C21.665 8.69881 21.8183 9.06878 21.8183 9.45455C21.8183 10.419 22.2014 11.3439 22.8833 12.0258C23.5653 12.7078 24.4902 13.0909 25.4546 13.0909C25.96 13.0889 26.458 12.9694 26.9092 12.7418C27.1303 12.6142 27.3811 12.5469 27.6365 12.5469C27.8918 12.5469 28.1426 12.6142 28.3637 12.7418C28.576 12.8711 28.7517 13.0526 28.8739 13.269C28.9961 13.4855 29.0609 13.7296 29.0619 13.9782V30.5455C29.062 30.9262 28.9127 31.2919 28.6462 31.5638C28.3797 31.8358 28.0172 31.9924 27.6365 32ZM5.81827 29.0909H26.1819V16C25.9397 16.0149 25.6968 16.0149 25.4546 16C24.5278 15.9987 23.6117 15.801 22.7668 15.4199C21.9219 15.0388 21.1673 14.483 20.5528 13.7891C20.0079 14.4739 19.3156 15.0269 18.5273 15.407C17.7391 15.7872 16.8752 15.9846 16.0001 15.9846C15.125 15.9846 14.2611 15.7872 13.4729 15.407C12.6846 15.0269 11.9923 14.4739 11.4474 13.7891C10.7523 14.5784 9.87906 15.1906 8.90012 15.5751C7.92119 15.9596 6.86472 16.1053 5.81827 16V29.0909Z" fill="#E9793A"/>
<path d="M30.5456 31.9999H1.45467C1.0689 31.9999 0.698929 31.8467 0.426149 31.5739C0.153368 31.3011 0.00012207 30.9311 0.00012207 30.5454C0.00012207 30.1596 0.153368 29.7896 0.426149 29.5168C0.698929 29.2441 1.0689 29.0908 1.45467 29.0908H30.5456C30.9313 29.0908 31.3013 29.2441 31.5741 29.5168C31.8469 29.7896 32.0001 30.1596 32.0001 30.5454C32.0001 30.9311 31.8469 31.3011 31.5741 31.5739C31.3013 31.8467 30.9313 31.9999 30.5456 31.9999Z" fill="#E9793A"/>
<path d="M20.3637 32.0001H11.6364C11.2507 32.0001 10.8807 31.8468 10.6079 31.5741C10.3351 31.3013 10.1819 30.9313 10.1819 30.5455V20.3637C10.1819 19.978 10.3351 19.608 10.6079 19.3352C10.8807 19.0624 11.2507 18.9092 11.6364 18.9092H20.3637C20.7495 18.9092 21.1194 19.0624 21.3922 19.3352C21.665 19.608 21.8182 19.978 21.8182 20.3637V30.5455C21.8182 30.9313 21.665 31.3013 21.3922 31.5741C21.1194 31.8468 20.7495 32.0001 20.3637 32.0001ZM13.091 29.091H18.9092V21.8183H13.091V29.091Z" fill="#E9793A"/>
</svg>
