<svg width="45" height="32" viewBox="0 0 45 32" fill="none" xmlns="http://www.w3.org/2000/svg">
<path d="M8.74216 8.80078H5.51645C4.8152 8.80078 4.25421 9.36178 4.25421 10.063C4.25421 10.7643 4.8152 11.3253 5.51645 11.3253H8.74216C9.4434 11.3253 10.0044 10.7643 10.0044 10.063C10.0044 9.36178 9.4434 8.80078 8.74216 8.80078Z" fill="#E9793A"/>
<path d="M8.74218 14.7378H3.36599C2.66475 14.7378 2.10376 15.2988 2.10376 16C2.10376 16.7013 2.66475 17.2623 3.36599 17.2623H8.74218C9.44342 17.2623 10.0044 16.7013 10.0044 16C10.0044 15.2988 9.44342 14.7378 8.74218 14.7378Z" fill="#E9793A"/>
<path d="M8.74215 20.6279H1.26224C0.560993 20.6279 0 21.1889 0 21.8902C0 22.5914 0.560993 23.1524 1.26224 23.1524H8.74215C9.44339 23.1524 10.0044 22.5914 10.0044 21.8902C10.0044 21.1889 9.44339 20.6279 8.74215 20.6279Z" fill="#E9793A"/>
<path d="M43.664 6.69686L29.4522 0.105186C29.1249 -0.0350621 28.7042 -0.0350621 28.3769 0.105186L14.1651 6.69686C13.6976 6.88386 13.4171 7.35135 13.4171 7.8656V24.1812C13.4171 24.6954 13.6976 25.1161 14.1651 25.3499L28.3769 31.8948C28.7042 32.0351 29.1249 32.0351 29.4522 31.8948L43.664 25.3031C44.1315 25.1161 44.412 24.6486 44.412 24.1344V7.8656C44.412 7.35135 44.1315 6.93061 43.664 6.69686ZM27.6289 28.7626L15.9416 23.3397V9.82907L20.2425 11.8393V19.3192C20.2425 20.0205 20.8035 20.5814 21.5048 20.5814C22.206 20.5814 22.767 20.0205 22.767 19.3192V13.008L27.6289 15.252V28.7626ZM28.9379 13.0548L24.5902 11.0446L29.2652 8.89408C29.9197 8.61359 30.2002 7.8656 29.8729 7.2111C29.5924 6.55661 28.8444 6.27611 28.1899 6.60336L21.5983 9.68882L17.7648 7.91235L28.9847 2.72316L40.2046 7.91235L28.9379 13.0548ZM41.8875 23.3397L30.2002 28.7626V15.252L41.8875 9.82907V23.3397Z" fill="#E9793A"/>
<path d="M33.7999 19.2256C33.9869 19.2256 34.1739 19.1789 34.3141 19.0854L38.7553 17.0284C39.4098 16.7479 39.6903 15.9999 39.3631 15.3454C39.0826 14.691 38.3346 14.4105 37.6801 14.7377L33.2389 16.7947C32.5844 17.0752 32.3039 17.8232 32.6311 18.4777C32.8649 18.9452 33.3324 19.2256 33.7999 19.2256Z" fill="#E9793A"/>
<path d="M33.7999 23.9942C33.9869 23.9942 34.1739 23.9475 34.3141 23.854L38.7553 21.797C39.4098 21.5165 39.6903 20.7685 39.3631 20.114C39.0826 19.4595 38.3346 19.179 37.6801 19.5063L33.2389 21.5632C32.5844 21.8437 32.3039 22.5917 32.6311 23.2462C32.8649 23.7137 33.3324 23.9942 33.7999 23.9942Z" fill="#E9793A"/>
</svg>
