<svg width="30" height="32" viewBox="0 0 30 32" fill="none" xmlns="http://www.w3.org/2000/svg">
<g clip-path="url(#clip0_1:1124)">
<path d="M1.5894 32V19.0199L1.37748 18.9139C0.529801 18.4371 0 17.4834 0 16.5298V11.2318C0 9.69536 1.21854 8.47682 2.75497 8.47682H4.07947L3.76159 7.84106C3.39073 7.09934 3.17881 6.25166 3.17881 5.40397C3.17881 3.97351 3.76159 2.59603 4.76821 1.5894C5.77483 0.582781 7.15232 0 8.58278 0C10.9139 0 13.1921 1.11258 14.6225 3.01987L14.9404 3.49669L15.2583 3.01987C16.6887 1.11258 18.9669 0 21.298 0C22.1457 0 22.9934 0.211921 23.7351 0.582781C26.3841 1.96026 27.4437 5.19205 26.0662 7.84106L25.8013 8.47682H27.1258C28.6623 8.47682 29.8808 9.69536 29.8808 11.2318V16.5298C29.8808 17.4834 29.351 18.4371 28.5033 18.9139L28.2914 19.0199V32H1.5894ZM16.106 29.6689H25.9603V19.2848H16.106V29.6689ZM3.92053 29.6689H13.7748V19.2848H3.92053V29.6689ZM16.106 16.9536H27.5497V10.8079H16.106V16.9536ZM2.33113 16.9536H13.7748V10.8079H2.33113V16.9536ZM21.298 2.33113C18.4371 2.33113 16.106 4.66225 16.106 7.52318V8.47682H21.298C22.9934 8.47682 24.3709 7.09934 24.3709 5.40397C24.3709 3.70861 22.9934 2.33113 21.298 2.33113ZM8.58278 2.33113C6.88742 2.33113 5.50993 3.70861 5.50993 5.40397C5.50993 7.09934 6.88742 8.47682 8.58278 8.47682H13.7748V7.52318C13.7748 4.66225 11.4437 2.33113 8.58278 2.33113Z" fill="#E9793A"/>
</g>
<defs>
<clipPath id="clip0_1:1124">
<rect width="29.8808" height="32" fill="white"/>
</clipPath>
</defs>
</svg>
