<svg width="40" height="26" viewBox="0 0 40 26" fill="none" xmlns="http://www.w3.org/2000/svg">
<rect x="1.25" y="1.25" width="37.5" height="23.5" rx="1.75" stroke="#E9793A" stroke-width="2.5" stroke-linecap="round" stroke-linejoin="round"/>
<path d="M1.66663 6.5H38.3333M6.73909 13.0542H15.8333M6.73909 16.9542H11.6666M25.8333 19.5L34.1666 11.375" stroke="#E9793A" stroke-width="2.5" stroke-linecap="round"/>
<path d="M28.1667 12.1875C28.1667 12.9577 27.5191 13.625 26.6667 13.625C25.8142 13.625 25.1667 12.9577 25.1667 12.1875C25.1667 11.4173 25.8142 10.75 26.6667 10.75C27.5191 10.75 28.1667 11.4173 28.1667 12.1875Z" stroke="#E9793A" stroke-width="2"/>
<path d="M34.8333 18.6875C34.8333 19.4577 34.1858 20.125 33.3333 20.125C32.4809 20.125 31.8333 19.4577 31.8333 18.6875C31.8333 17.9173 32.4809 17.25 33.3333 17.25C34.1858 17.25 34.8333 17.9173 34.8333 18.6875Z" stroke="#E9793A" stroke-width="2"/>
</svg>
