<svg width="24" height="24" viewBox="0 0 24 24" fill="none" xmlns="http://www.w3.org/2000/svg">
<path d="M11.625 8.4C10.7001 8.4 9.813 8.77928 9.15897 9.45442C8.50493 10.1295 8.1375 11.0452 8.1375 12C8.1375 12.9548 8.50493 13.8705 9.15897 14.5456C9.813 15.2207 10.7001 15.6 11.625 15.6C12.5499 15.6 13.437 15.2207 14.091 14.5456C14.7451 13.8705 15.1125 12.9548 15.1125 12C15.1125 11.0452 14.7451 10.1295 14.091 9.45442C13.437 8.77928 12.5499 8.4 11.625 8.4ZM11.625 6C13.1666 6 14.645 6.63214 15.7351 7.75736C16.8251 8.88258 17.4375 10.4087 17.4375 12C17.4375 13.5913 16.8251 15.1174 15.7351 16.2426C14.645 17.3679 13.1666 18 11.625 18C10.0834 18 8.605 17.3679 7.51494 16.2426C6.42489 15.1174 5.8125 13.5913 5.8125 12C5.8125 10.4087 6.42489 8.88258 7.51494 7.75736C8.605 6.63214 10.0834 6 11.625 6ZM19.1812 5.7C19.1812 6.09783 19.0282 6.47936 18.7556 6.76066C18.4831 7.04197 18.1135 7.2 17.7281 7.2C17.3427 7.2 16.9731 7.04197 16.7006 6.76066C16.4281 6.47936 16.275 6.09783 16.275 5.7C16.275 5.30218 16.4281 4.92064 16.7006 4.63934C16.9731 4.35804 17.3427 4.2 17.7281 4.2C18.1135 4.2 18.4831 4.35804 18.7556 4.63934C19.0282 4.92064 19.1812 5.30218 19.1812 5.7ZM11.625 2.4C8.74897 2.4 8.27933 2.4084 6.94129 2.4696C6.02989 2.514 5.41841 2.64 4.85111 2.868C4.34659 3.0696 3.98272 3.3108 3.59561 3.7116C3.23176 4.07448 2.952 4.5175 2.77721 5.0076C2.55634 5.5956 2.43428 6.2256 2.39243 7.1652C2.33198 8.49 2.325 8.9532 2.325 12C2.325 14.9688 2.33314 15.4536 2.39243 16.8348C2.43544 17.7744 2.5575 18.4068 2.77721 18.9912C2.97484 19.5132 3.20734 19.8888 3.59329 20.2872C3.98505 20.6904 4.34891 20.9316 4.84879 21.1308C5.42306 21.36 6.03454 21.4872 6.94129 21.5304C8.22469 21.5928 8.67341 21.6 11.625 21.6C14.501 21.6 14.9707 21.5916 16.3087 21.5304C17.2178 21.486 17.8304 21.36 18.3977 21.1332C18.9011 20.9304 19.2673 20.6892 19.6532 20.2908C20.045 19.8864 20.2787 19.5108 20.4716 18.9948C20.6925 18.4032 20.8157 17.7708 20.8576 16.8348C20.918 15.51 20.925 15.0468 20.925 12C20.925 9.0312 20.9169 8.5464 20.8576 7.1652C20.8146 6.2268 20.6925 5.5932 20.4716 5.0076C20.2964 4.518 20.0172 4.07515 19.6544 3.7116C19.303 3.33582 18.8738 3.047 18.3989 2.8668C17.8293 2.6388 17.2178 2.5128 16.3087 2.4696C15.0253 2.4072 14.5766 2.4 11.625 2.4ZM11.625 0C14.7835 0 15.1776 0.0119999 16.4168 0.0719999C17.6549 0.132 18.4977 0.3324 19.2394 0.63C20.0066 0.9348 20.653 1.3476 21.2993 2.0136C21.8904 2.61348 22.3478 3.33911 22.6397 4.14C22.9268 4.9044 23.1221 5.7756 23.1803 7.0536C23.2349 8.3328 23.25 8.7396 23.25 12C23.25 15.2604 23.2384 15.6672 23.1803 16.9464C23.1221 18.2244 22.9268 19.0944 22.6397 19.86C22.3487 20.6613 21.8912 21.3871 21.2993 21.9864C20.718 22.5964 20.0151 23.0685 19.2394 23.37C18.4989 23.6664 17.6549 23.868 16.4168 23.928C15.1776 23.9844 14.7835 24 11.625 24C8.46649 24 8.0724 23.988 6.83317 23.928C5.59511 23.868 4.7523 23.6664 4.01062 23.37C3.23445 23.0694 2.53138 22.5971 1.95068 21.9864C1.35943 21.3866 0.90202 20.661 0.610313 19.86C0.322013 19.0956 0.127875 18.2244 0.0697499 16.9464C0.0151124 15.6672 0 15.2604 0 12C0 8.7396 0.0116249 8.3328 0.0697499 7.0536C0.127875 5.7744 0.322013 4.9056 0.610313 4.14C0.901212 3.33862 1.35873 2.61279 1.95068 2.0136C2.53154 1.40308 3.23457 0.930875 4.01062 0.63C4.7523 0.3324 5.59395 0.132 6.83317 0.0719999C8.0724 0.0155999 8.46649 0 11.625 0Z" fill="white"/>
</svg>
