<svg width="15" height="16" viewBox="0 0 15 16" xmlns="http://www.w3.org/2000/svg">
<path d="M13.4524 5.25514L10.7653 5.20412C10.9694 4.03065 11.1224 1.95582 10.068 0.799358C9.64286 0.323167 8.82653 -0.187037 7.38095 0.0680654C7.0068 0.136093 6.76871 0.476229 6.81973 0.850378C7.14286 3.01024 6.78572 4.04766 6.41157 4.55786C6.10544 4.98303 5.7483 5.06807 5.69728 5.06807C5.42517 5.08507 5.05102 5.20412 4.71089 5.39119C4.43878 4.93201 3.94558 4.62589 3.36735 4.62589H1.56463C0.697279 4.59188 0 5.28915 0 6.1565V12.7211C0 13.5885 0.697279 14.2858 1.56463 14.2858H3.36735C4.03061 14.2858 4.59184 13.8776 4.81293 13.2994C5.62925 14.1157 6.81973 14.847 8.33333 14.983C9.23469 15.0511 10.017 15.0851 10.6463 15.0851C11.7347 15.0851 12.415 15.017 12.602 14.983C13.4184 14.949 14.0816 14.2858 14.1156 13.4694L15 6.88779C15 6.85378 15 6.81977 15 6.80276C15 5.95242 14.3027 5.25514 13.4524 5.25514ZM3.57143 12.7211C3.57143 12.8402 3.48639 12.9252 3.36735 12.9252H1.56463C1.44558 12.9252 1.36054 12.8402 1.36054 12.7211V6.1565C1.36054 6.03745 1.44558 5.95242 1.56463 5.95242H3.36735C3.48639 5.95242 3.57143 6.03745 3.57143 6.1565V6.81977V11.2245V12.7211ZM12.7551 13.3334C12.7551 13.3674 12.7551 13.4014 12.7551 13.4184C12.7551 13.5375 12.6701 13.6225 12.551 13.6225C12.517 13.6225 12.483 13.6225 12.449 13.6225C12.432 13.6225 10.9694 13.8266 8.45238 13.6225C6.29252 13.4354 5.05102 11.5987 4.93197 11.1735V6.88779C5.05102 6.70072 5.54422 6.4116 5.76531 6.3946C5.78231 6.3946 5.79932 6.3946 5.83333 6.3946C5.93537 6.3946 6.78571 6.29255 7.48299 5.4082C8.19728 4.50684 8.45238 3.1463 8.28231 1.36058C8.79252 1.3946 8.9966 1.61568 9.08163 1.71773C9.88095 2.60208 9.4898 4.94902 9.30272 5.69732C9.2517 5.9014 9.28572 6.12249 9.42177 6.27555C9.54082 6.44562 9.7449 6.54766 9.94898 6.54766L13.4354 6.61568C13.5374 6.61568 13.6224 6.68371 13.6395 6.78575L12.7551 13.3334Z"/>
</svg>
