<svg width="40" height="40" viewBox="0 0 40 40" fill="none" xmlns="http://www.w3.org/2000/svg">
<path d="M8.33335 8H32.3333C32.687 8 33.0261 8.14048 33.2762 8.39052C33.5262 8.64057 33.6667 8.97971 33.6667 9.33333V30.6667C33.6667 31.0203 33.5262 31.3594 33.2762 31.6095C33.0261 31.8595 32.687 32 32.3333 32H8.33335C7.97973 32 7.64059 31.8595 7.39054 31.6095C7.14049 31.3594 7.00002 31.0203 7.00002 30.6667V9.33333C7.00002 8.97971 7.14049 8.64057 7.39054 8.39052C7.64059 8.14048 7.97973 8 8.33335 8ZM31 13.6507L20.4293 23.1173L9.66668 13.6213V29.3333H31V13.6507ZM10.348 10.6667L20.4147 19.5493L30.336 10.6667H10.348Z" fill="#E77E42"/>
</svg>
