<svg width="40" height="40" viewBox="0 0 40 40" fill="none" xmlns="http://www.w3.org/2000/svg">
<circle cx="20" cy="20" r="20" fill="#B6B7C4"/>
<path d="M28.9987 14.6408C28.362 14.9225 27.6868 15.1074 26.9954 15.1896C27.7241 14.7538 28.2695 14.0679 28.53 13.2597C27.8461 13.6667 27.0964 13.952 26.3149 14.1062C25.79 13.5446 25.0942 13.1721 24.3358 13.0467C23.5774 12.9213 22.7988 13.05 22.121 13.4127C21.4432 13.7755 20.9043 14.352 20.588 15.0526C20.2717 15.7533 20.1957 16.5388 20.3719 17.2871C18.9851 17.2176 17.6284 16.8572 16.3899 16.2293C15.1514 15.6014 14.0587 14.7201 13.1829 13.6425C12.8729 14.175 12.71 14.7803 12.7109 15.3964C12.7109 16.6057 13.3264 17.674 14.2621 18.2995C13.7084 18.2821 13.1668 18.1326 12.6825 17.8634V17.9067C12.6827 18.7121 12.9614 19.4926 13.4714 20.116C13.9813 20.7394 14.6912 21.1672 15.4806 21.3269C14.9665 21.4662 14.4275 21.4867 13.9043 21.387C14.1269 22.0802 14.5607 22.6865 15.145 23.1209C15.7293 23.5553 16.4348 23.7962 17.1627 23.8097C16.4392 24.3779 15.6108 24.7979 14.7249 25.0458C13.8389 25.2937 12.9128 25.3645 11.9995 25.2542C13.5938 26.2795 15.4498 26.8238 17.3454 26.822C23.7612 26.822 27.2698 21.507 27.2698 16.8976C27.2698 16.7475 27.2657 16.5957 27.259 16.4472C27.9419 15.9537 28.5313 15.3422 28.9995 14.6417L28.9987 14.6408Z" fill="white"/>
</svg>
