<svg width="14" height="14" viewBox="0 0 14 14" xmlns="http://www.w3.org/2000/svg">
<path d="M7.00001 13.6667C3.31801 13.6667 0.333344 10.682 0.333344 7.00004C0.333344 3.31804 3.31801 0.333374 7.00001 0.333374C10.682 0.333374 13.6667 3.31804 13.6667 7.00004C13.6667 10.682 10.682 13.6667 7.00001 13.6667ZM7.00001 12.3334C8.4145 12.3334 9.77105 11.7715 10.7712 10.7713C11.7714 9.77108 12.3333 8.41453 12.3333 7.00004C12.3333 5.58555 11.7714 4.229 10.7712 3.2288C9.77105 2.22861 8.4145 1.66671 7.00001 1.66671C5.58552 1.66671 4.22897 2.22861 3.22877 3.2288C2.22858 4.229 1.66668 5.58555 1.66668 7.00004C1.66668 8.41453 2.22858 9.77108 3.22877 10.7713C4.22897 11.7715 5.58552 12.3334 7.00001 12.3334ZM6.33334 9.00004H7.66668V10.3334H6.33334V9.00004ZM7.66668 7.90337V8.33337H6.33334V7.33337C6.33334 7.15656 6.40358 6.98699 6.52861 6.86197C6.65363 6.73695 6.8232 6.66671 7.00001 6.66671C7.1894 6.6667 7.37488 6.6129 7.53489 6.51159C7.6949 6.41028 7.82285 6.26562 7.90386 6.09443C7.98486 5.92324 8.01559 5.73257 7.99247 5.5446C7.96934 5.35663 7.89331 5.1791 7.77323 5.03265C7.65315 4.8862 7.49395 4.77686 7.31416 4.71735C7.13436 4.65785 6.94137 4.65062 6.75763 4.69651C6.57389 4.7424 6.40695 4.83953 6.27625 4.97658C6.14556 5.11364 6.05646 5.285 6.01934 5.47071L4.71134 5.20871C4.79243 4.80343 4.97968 4.42695 5.25396 4.11776C5.52823 3.80858 5.87969 3.57776 6.2724 3.44892C6.66512 3.32008 7.085 3.29783 7.48913 3.38445C7.89326 3.47107 8.26714 3.66345 8.57256 3.94192C8.87797 4.2204 9.10396 4.57498 9.22742 4.96942C9.35088 5.36385 9.36739 5.784 9.27525 6.18691C9.18312 6.58982 8.98565 6.96104 8.70302 7.26262C8.4204 7.56419 8.06277 7.78531 7.66668 7.90337Z"/>
</svg>
