<svg width="12" height="12" viewBox="0 0 12 12" xmlns="http://www.w3.org/2000/svg">
<path d="M5.52984 1.29906C5.68901 0.859269 6.31099 0.859268 6.47016 1.29906L7.57584 4.35409C7.64542 4.54637 7.82508 4.67689 8.02945 4.68366L11.2766 4.79117C11.7441 4.80664 11.9363 5.39818 11.5672 5.68546L9.00337 7.68108C8.84201 7.80668 8.77338 8.01787 8.8301 8.21433L9.73129 11.3358C9.86102 11.7852 9.35784 12.1507 8.97057 11.8885L6.28035 10.0668C6.11103 9.95218 5.88897 9.95218 5.71965 10.0668L3.02943 11.8885C2.64216 12.1507 2.13897 11.7852 2.26871 11.3358L3.1699 8.21433C3.22662 8.01787 3.15799 7.80668 2.99663 7.68108L0.432795 5.68546C0.0637175 5.39818 0.255917 4.80664 0.723366 4.79117L3.97055 4.68366C4.17492 4.67689 4.35458 4.54637 4.42416 4.35409L5.52984 1.29906Z"/>
</svg>
