<svg width="32" height="32" viewBox="0 0 32 32" xmlns="http://www.w3.org/2000/svg">
<path d="M6.96289 9.92188C6.96289 8.70052 7.35938 7.71159 8.15234 6.95508C8.94531 6.18945 9.98438 5.80664 11.2695 5.80664C12.5729 5.80664 13.6211 6.1849 14.4141 6.94141C15.207 7.6888 15.6035 8.70508 15.6035 9.99023V10.9746C15.6035 12.2051 15.207 13.194 14.4141 13.9414C13.6211 14.6888 12.582 15.0625 11.2969 15.0625C10.0026 15.0625 8.95443 14.6888 8.15234 13.9414C7.35938 13.1849 6.96289 12.1686 6.96289 10.8926V9.92188ZM9.58789 10.9746C9.58789 11.5215 9.74284 11.9635 10.0527 12.3008C10.3717 12.6289 10.7865 12.793 11.2969 12.793C11.8073 12.793 12.2129 12.6243 12.5137 12.2871C12.8145 11.9499 12.9648 11.4987 12.9648 10.9336V9.92188C12.9648 9.375 12.8145 8.93294 12.5137 8.5957C12.2129 8.25846 11.7982 8.08984 11.2695 8.08984C10.7682 8.08984 10.3626 8.25846 10.0527 8.5957C9.74284 8.92383 9.58789 9.38411 9.58789 9.97656V10.9746ZM16.4785 21.1191C16.4785 19.8887 16.8796 18.8997 17.6816 18.1523C18.4837 17.3958 19.5228 17.0176 20.7988 17.0176C22.0931 17.0176 23.1367 17.3913 23.9297 18.1387C24.7318 18.877 25.1328 19.8978 25.1328 21.2012V22.1855C25.1328 23.4069 24.7409 24.3958 23.957 25.1523C23.1732 25.8997 22.1296 26.2734 20.8262 26.2734C19.5137 26.2734 18.4609 25.8952 17.668 25.1387C16.875 24.3822 16.4785 23.3796 16.4785 22.1309V21.1191ZM19.1035 22.1855C19.1035 22.6868 19.2676 23.1152 19.5957 23.4707C19.9238 23.8262 20.334 24.0039 20.8262 24.0039C21.9382 24.0039 22.4941 23.3887 22.4941 22.1582V21.1191C22.4941 20.5723 22.3392 20.1348 22.0293 19.8066C21.7194 19.4694 21.3092 19.3008 20.7988 19.3008C20.2884 19.3008 19.8783 19.4694 19.5684 19.8066C19.2585 20.1348 19.1035 20.5859 19.1035 21.1602V22.1855ZM12.0762 24.5098L10.1484 23.4707L19.8691 7.91211L21.7969 8.95117L12.0762 24.5098Z" stroke='#202454'/>
</svg>
