<svg width="24" height="28" viewBox="0 0 24 28" xmlns="http://www.w3.org/2000/svg">
<path d="M18.2188 9.86279C20.3565 9.86279 24.8909 13.1008 22.235 17.5713C22.0131 17.9449 21.1922 16.3658 19.6439 16.211C18.4779 16.0944 18.5616 16.3859 17.6358 16.4701C16.8346 16.5429 16.038 15.6928 15.6925 15.3041" stroke-width="1.14286" stroke-linecap="round"/>
<path d="M1.31165 25.086C2.08897 17.5062 5.39262 9.08602 5.39262 9.08602C5.39262 9.08602 2.64596 5.2879 5.45739 1.44231C5.51289 1.36641 8.08101 6.07 12.0647 6.49493C13.8784 6.6884 17.0987 6.7249 17.8299 7.1427C19.1902 7.92003 18.2185 9.49628 17.8299 10.1225M16.7286 27.4828L15.1092 19.58M13.5546 19.2561C16.0161 20.163 18.944 18.3362 19.255 15.9524" stroke-width="1.14286"/>
<ellipse cx="11.2224" cy="12.2596" rx="0.712551" ry="1.03644"/>
</svg>
