<svg width="21" height="27" viewBox="0 0 21 27" xmlns="http://www.w3.org/2000/svg">
<g opacity="0.9">
<ellipse cx="13.1091" cy="15.6097" rx="0.647773" ry="0.935672"/>
<path d="M3.06863 26.3988C3.06863 21.7823 5.78927 13.3137 5.78927 13.3137C0.80142 10.2873 0.663484 1.65381 1.38442 1.65381C3.78118 1.65382 9.9998 5.42168 10.518 10.0749C10.5395 10.268 20.0403 11.1761 19.7812 16.3583C19.7668 16.6462 19.7136 16.9272 19.6272 17.2004M12.7204 22.6417C13.3218 22.4793 14.4926 22.1863 15.3115 21.7823M15.3115 21.7823C15.657 23.1268 15.8427 25.9583 15.8945 26.5284M15.3115 21.7823C17.1549 20.8727 19.0548 19.0119 19.6272 17.2004M19.6272 17.2004C19.657 16.8765 18.8095 16.4986 17.5787 16.2288" stroke-width="1.14286"/>
<path d="M13.4329 10.7873C14.6637 6.25295 10.4298 1.03529 9.93493 1.20027C9.54624 1.32986 8.45586 2.97786 7.98222 5.34607" stroke-width="1.14286"/>
</g>
</svg>
