<svg width="25" height="25" viewBox="0 0 25 25" xmlns="http://www.w3.org/2000/svg">
<path d="M3.98024 23.9097C1.98768 13.8218 5.27579 1.4449 6.57134 0.719394C7.15433 0.392918 8.57943 2.55056 9.68065 4.10521H16.8709C17.5835 3.32788 18.8531 0.866346 19.5268 0.866346C20.3689 0.866346 20.9519 9.48173 20.5632 11.8785C20.3675 13.0858 19.1381 14.923 18.879 15.2469C20.5632 16.6072 24.2556 20.8825 24.2556 22.6315" stroke-width="1.14286"/>
<ellipse cx="10.0693" cy="9.31604" rx="0.647773" ry="0.935672"/>
<ellipse cx="16.1588" cy="9.31604" rx="0.647773" ry="0.935672"/>
<path d="M13.7801 11.8131C13.6821 11.932 13.542 11.9901 13.4028 11.9885C13.2592 11.9868 13.1165 11.9216 13.0218 11.794C12.8791 11.6017 12.9059 11.3612 13.0365 11.201C13.1231 11.0948 13.2553 11.0239 13.414 11.0257C13.5781 11.0277 13.7116 11.1063 13.7952 11.22C13.9174 11.3864 13.9327 11.6277 13.7801 11.8131Z" stroke-width="3.30622"/>
<line x1="1.59545" y1="9.23914" x2="6.38897" y2="9.88691"  stroke-width="1.14286"/>
<path d="M6.59737 12.2016L0.119635 12.8494"  stroke-width="1.14286"/>
<line x1="18.8064" y1="9.88664" x2="22.8226" y2="9.36842" stroke-width="1.14286"/>
<path d="M18.6747 12.2069L24.116 12.9843" stroke-width="1.14286"/>
</svg>
