<svg width="25" height="27" viewBox="0 0 25 27" xmlns="http://www.w3.org/2000/svg">
<path d="M1.63596 24.9919C1.11774 18.1904 3.55337 2.16487 5.26349 1.54301C5.84649 1.33101 7.5307 3.61542 8.11369 5.75354L13.1015 5.10578C13.6845 3.87459 15.1744 0.731151 15.6279 0.700922C16.4052 0.6491 17.053 4.78141 17.7007 7.95597C18.7372 7.82594 19.7088 7.76117 20.6805 7.62428M16.7291 27.5183L16.0813 18.579C18.6076 18.0608 22.3906 16.9078 22.7534 16.7005C23.1161 16.4932 23.725 12.8786 23.8546 9.89888M20.6805 7.62428C20.6805 7.62428 23.3814 7.25383 23.5955 7.43734C23.8677 7.67069 23.8724 8.69098 23.8546 9.89888M20.6805 7.62428C20.6157 8.60327 20.7513 9.38678 21.1339 9.76933C21.6522 10.2875 23.1348 9.99054 23.8546 9.89888" stroke-width="1.14286"/>
<path d="M10.5856 10.0568C10.5856 10.2825 10.522 10.4789 10.4286 10.6138C10.3346 10.7495 10.2231 10.8088 10.1215 10.8088C10.02 10.8088 9.90842 10.7495 9.8145 10.6138C9.72109 10.4789 9.65743 10.2825 9.65743 10.0568C9.65743 9.83102 9.72109 9.63463 9.8145 9.4997C9.90842 9.36404 10.02 9.30477 10.1215 9.30477C10.2231 9.30477 10.3346 9.36404 10.4286 9.4997C10.522 9.63463 10.5856 9.83102 10.5856 10.0568Z" stroke-width="0.367358"/>
<path d="M14.602 9.53846C14.602 9.7642 14.5383 9.96059 14.4449 10.0955C14.351 10.2312 14.2395 10.2904 14.1379 10.2904C14.0363 10.2904 13.9248 10.2312 13.8309 10.0955C13.7374 9.96059 13.6738 9.7642 13.6738 9.53846C13.6738 9.31271 13.7374 9.11632 13.8309 8.98139C13.9248 8.84573 14.0363 8.78646 14.1379 8.78646C14.2395 8.78646 14.351 8.84573 14.4449 8.98139C14.5383 9.11632 14.602 9.31271 14.602 9.53846Z" stroke-width="0.367358"/>
</svg>
