<svg width="48" height="58" viewBox="0 0 48 58" xmlns="http://www.w3.org/2000/svg">
<path d="M1.46681 42.0875C-3.08656 29.5252 3.31763 15.5644 15.7432 10.9605C23.6097 8.04724 32.0121 9.59285 38.2842 14.2897L36.0538 4.04022C35.7176 2.49494 36.6937 0.968544 38.2375 0.625596C39.7909 0.280532 41.3287 1.26406 41.667 2.81889L44.7783 17.1197L46.0109 22.7896L40.403 24.0392V24.0373L26.3088 27.1727C24.7399 27.5217 23.1862 26.5286 22.8442 24.9581C22.5044 23.3974 23.4902 21.8556 25.0494 21.509L35.2333 19.2457C30.4216 15.4484 23.8585 14.1349 17.7165 16.4098C8.26336 19.9111 3.38845 30.535 6.85276 40.0911C10.319 49.6433 20.8287 54.5684 30.2837 51.069C37.4924 48.4002 42.0181 41.5958 42.2359 34.2776C42.2759 32.9331 43.0413 31.6748 44.3028 31.2081C46.0628 30.557 47.9878 31.6874 47.9995 33.5639C48.0616 43.5132 42.0238 52.9018 32.2609 56.5183C19.8315 61.1184 6.01826 54.6477 1.46681 42.0875Z"/>
</svg>
