<svg width="20" height="20" viewBox="0 0 20 20" fill="none" xmlns="http://www.w3.org/2000/svg">
<rect width="20" height="20" rx="10" fill="#E95471"/>
<path d="M10.3099 14.6264H12.0133L9.81749 16.8222L10.9953 18L15.2205 13.7747L15.1939 13.7481L15.2205 13.7215L11.0019 9.50285L9.82415 10.6806L12.1065 12.9629H10.3099C8.30038 12.9629 6.6635 11.326 6.6635 9.31654C6.6635 7.30703 8.30038 5.6635 10.3099 5.6635C12.3194 5.6635 13.9563 7.30038 13.9563 9.30989H15.6198C15.6198 6.38213 13.2376 4 10.3099 4C7.38213 4 5 6.38213 5 9.30989C5 12.2376 7.38213 14.6264 10.3099 14.6264Z" fill="white"/>
</svg>
