<svg width="23" height="24" viewBox="0 0 23 24" fill="none" xmlns="http://www.w3.org/2000/svg">
<path d="M21.3 13.05C21.6 10.35 21.6 8.1 21.3 6.15C21.0682 4.60457 20.3295 3.17994 19.2 2.1L18 1.35L15.3 0.45C14.1 0.15 12.6 0 11.1 0H10.5C8.41176 0.0684215 6.34265 0.421685 4.35 1.05C3.45 1.35 2.85 1.8 2.25 2.25C0.75 3.75 0.15 6 0 9.15V11.25L0.15 13.5L0.9 15.75C1.2826 16.5698 1.84564 17.2925 2.54698 17.8639C3.24833 18.4354 4.06982 18.8409 4.95 19.05C4.99582 20.7001 5.04582 22.3501 5.1 24L5.55 23.85L9.15 19.5C11.8806 19.6285 14.6143 19.3248 17.25 18.6C17.8573 18.2626 18.4574 17.9126 19.05 17.55L20.1 16.5L20.85 15L21.3 12.9V13.05ZM14.1 9C14.1 9.3 13.95 9.45 13.65 9.45L13.5 9C13.5 7.8 12.9 7.2 11.85 7.2L11.55 7.05V6.6H11.85C13.35 6.6 14.1 7.35 14.25 8.85L14.1 9ZM15.15 9.6C15.15 8.55 14.85 7.5 14.1 6.75C13.35 6 12.45 5.55 11.1 5.55L10.8 5.25V4.95L11.25 4.8C12.75 4.8 13.8 5.4 14.55 6.3C15.45 7.2 15.75 8.4 15.75 9.6V9.9H15.3L15.15 9.6ZM17.55 10.35L17.4 10.65H17.1L16.95 10.35C16.95 8.25 16.2 6.75 15 5.55C14.4163 4.95352 13.7147 4.48535 12.9398 4.17541C12.165 3.86547 11.334 3.72058 10.5 3.75C10.35 3.75 10.2 3.75 10.2 3.45C10.2 3.15 10.35 3 10.5 3C11.4386 2.99979 12.3677 3.18699 13.233 3.55063C14.0983 3.91427 14.8822 4.44702 15.5389 5.11765C16.1955 5.78827 16.7117 6.58326 17.057 7.45599C17.4024 8.32873 17.57 9.26164 17.55 10.2V10.35ZM16.95 15.45L15.75 16.95C15.3 17.25 14.7 17.4 14.25 17.1C12.3138 16.3677 10.4947 15.3571 8.85 14.1C7.28909 12.889 6.00963 11.3537 5.1 9.6C4.60082 8.72544 4.15014 7.82408 3.75 6.9V6.75C3.6 6.15 3.75 5.7 4.05 5.25L5.55 3.9C6 3.75 6.45 3.9 6.75 4.2C7.27583 5.01635 7.82607 5.81672 8.4 6.6C8.85 7.2 8.7 7.65 8.4 8.1L7.65 8.4L7.35 8.7V9.6L7.95 10.5L8.7 11.7L9.9 12.75L11.7 13.65C12 13.65 12.3 13.65 12.45 13.35L13.05 12.75C13.35 12.3 13.8 12.15 14.4 12.45L16.8 14.25C17.1 14.55 17.25 15 16.95 15.45Z" fill="white"/>
</svg>
