<svg xmlns="http://www.w3.org/2000/svg"><symbol fill="none" id="sprite-arrow-down" viewBox="0 0 12 8"><title>arrow-down</title><path d="m1 1 5 5 5-5" stroke-width="2"/></symbol><symbol id="sprite-arrow-next" viewBox="0 0 9 14"><title>arrow-next</title><path d="m1 1 6 6-6 6"/></symbol><symbol fill="none" id="sprite-arrow-prev" viewBox="0 0 9 14"><title>arrow-prev</title><path d="M8 13 2 7l6-6"/></symbol><symbol fill="none" id="sprite-arrow-up" viewBox="0 0 14 9"><title>arrow-up</title><path d="m1 8 6-6 6 6" stroke="#fff" stroke-width="2"/></symbol><symbol fill="none" id="sprite-benefits-1" viewBox="0 0 45 32"><title>benefits-1</title><path d="M8.742 8.8H5.516c-.7 0-1.262.562-1.262 1.263 0 .701.561 1.262 1.262 1.262h3.226c.701 0 1.262-.56 1.262-1.262 0-.701-.56-1.262-1.262-1.262Zm0 5.938H3.366c-.701 0-1.262.56-1.262 1.262 0 .701.56 1.262 1.262 1.262h5.376c.701 0 1.262-.56 1.262-1.262 0-.701-.56-1.262-1.262-1.262Zm0 5.89h-7.48c-.701 0-1.262.56-1.262 1.262 0 .701.561 1.262 1.262 1.262h7.48c.701 0 1.262-.56 1.262-1.262 0-.701-.56-1.262-1.262-1.262ZM43.664 6.697 29.452.105a1.427 1.427 0 0 0-1.075 0L14.165 6.697c-.467.187-.748.654-.748 1.169V24.18c0 .514.28.935.748 1.169l14.212 6.545c.327.14.748.14 1.075 0l14.212-6.592c.468-.187.748-.654.748-1.169V7.866c0-.515-.28-.935-.748-1.17ZM27.629 28.763 15.942 23.34V9.83l4.3 2.01v7.48c0 .7.561 1.261 1.263 1.261.701 0 1.262-.56 1.262-1.262v-6.311l4.862 2.244v13.51Zm1.309-15.708-4.348-2.01 4.675-2.15c.655-.281.935-1.03.608-1.684a1.213 1.213 0 0 0-1.683-.608L21.598 9.69l-3.833-1.777 11.22-5.189 11.22 5.19-11.267 5.142Zm12.95 10.285L30.2 28.763V15.252l11.688-5.423v13.51Z" fill="#E9793A"/><path d="M33.8 19.226a.942.942 0 0 0 .514-.14l4.441-2.058c.655-.28.935-1.028.608-1.683a1.213 1.213 0 0 0-1.683-.607l-4.441 2.057a1.213 1.213 0 0 0-.608 1.683c.234.467.701.748 1.169.748Zm0 4.768a.942.942 0 0 0 .514-.14l4.441-2.057c.655-.28.935-1.029.608-1.683a1.213 1.213 0 0 0-1.683-.608l-4.441 2.057a1.213 1.213 0 0 0-.608 1.683 1.33 1.33 0 0 0 1.169.748Z" fill="#E9793A"/></symbol><symbol fill="none" id="sprite-benefits-2" viewBox="0 0 30 32"><title>benefits-2</title><g clip-path="url(#a)"><path d="M1.59 32V19.02l-.213-.106C.53 18.437 0 17.484 0 16.53v-5.298a2.736 2.736 0 0 1 2.755-2.755h1.324l-.317-.636a5.504 5.504 0 0 1-.583-2.437c0-1.43.583-2.808 1.59-3.815A5.417 5.417 0 0 1 8.582 0a7.603 7.603 0 0 1 6.04 3.02l.317.477.318-.477A7.603 7.603 0 0 1 21.298 0c.848 0 1.695.212 2.437.583 2.65 1.377 3.709 4.609 2.331 7.258l-.265.636h1.325a2.736 2.736 0 0 1 2.755 2.755v5.298c0 .953-.53 1.907-1.378 2.384l-.212.106V32H1.59Zm14.516-2.331h9.854V19.285h-9.854v10.384Zm-12.185 0h9.854V19.285H3.92v10.384Zm12.185-12.715H27.55v-6.146H16.106v6.146Zm-13.775 0h11.444v-6.146H2.33v6.146ZM21.298 2.33a5.2 5.2 0 0 0-5.192 5.192v.954h5.192a3.075 3.075 0 0 0 3.073-3.073 3.075 3.075 0 0 0-3.073-3.073Zm-12.715 0A3.075 3.075 0 0 0 5.51 5.404a3.075 3.075 0 0 0 3.073 3.073h5.192v-.954a5.2 5.2 0 0 0-5.192-5.192Z" fill="#E9793A"/></g><defs><clipPath id="a"><path fill="#fff" d="M0 0h29.881v32H0z"/></clipPath></defs></symbol><symbol fill="none" id="sprite-benefits-3" viewBox="0 0 32 32"><title>benefits-3</title><path d="M16 16a5.818 5.818 0 0 1-5.818-5.818V1.455A1.454 1.454 0 0 1 11.636 0h8.728a1.454 1.454 0 0 1 1.454 1.455v8.727A5.818 5.818 0 0 1 16 16ZM13.091 2.91v7.272a2.91 2.91 0 0 0 5.818 0V2.909h-5.818Z" fill="#E9793A"/><path d="M6.546 16c-1.01.02-2.01-.21-2.91-.67A6.502 6.502 0 0 1 0 9.456c0-.17.03-.336.087-.495l2.91-8A1.454 1.454 0 0 1 4.363 0h7.272a1.454 1.454 0 0 1 1.455 1.455v8A6.56 6.56 0 0 1 6.546 16ZM2.909 9.687a3.622 3.622 0 0 0 2.066 3.026 3.33 3.33 0 0 0 1.57.378 3.636 3.636 0 0 0 3.637-3.636V2.909h-4.8L2.909 9.687ZM25.455 16a6.56 6.56 0 0 1-6.546-6.545v-8A1.454 1.454 0 0 1 20.364 0h7.273a1.455 1.455 0 0 1 1.367.96l2.909 8c.057.159.087.326.087.495a6.53 6.53 0 0 1-3.753 5.905 6.08 6.08 0 0 1-2.792.64ZM21.818 2.91v6.545a3.636 3.636 0 0 0 3.637 3.636 3.258 3.258 0 0 0 1.454-.35 3.65 3.65 0 0 0 2.182-3.054L26.618 2.91h-4.8Z" fill="#E9793A"/><path d="M27.637 32H4.364a1.454 1.454 0 0 1-1.455-1.454v-16.51a1.455 1.455 0 0 1 .698-1.236 1.454 1.454 0 0 1 1.455 0c.451.228.95.347 1.454.35a3.638 3.638 0 0 0 3.666-3.695 1.455 1.455 0 0 1 2.909 0v.727a2.91 2.91 0 1 0 5.818 0v-.727a1.454 1.454 0 1 1 2.91 0 3.636 3.636 0 0 0 3.636 3.636 3.258 3.258 0 0 0 1.454-.35 1.455 1.455 0 0 1 1.455 0 1.455 1.455 0 0 1 .698 1.237v16.568A1.454 1.454 0 0 1 27.637 32ZM5.818 29.09h20.364V16a5.922 5.922 0 0 1-.727 0 6.56 6.56 0 0 1-4.902-2.21 5.817 5.817 0 0 1-9.106 0A6.618 6.618 0 0 1 5.818 16v13.09Z" fill="#E9793A"/><path d="M30.546 32H1.455a1.454 1.454 0 1 1 0-2.91h29.09a1.455 1.455 0 0 1 0 2.91Z" fill="#E9793A"/><path d="M20.364 32h-8.728a1.455 1.455 0 0 1-1.454-1.454V20.364a1.455 1.455 0 0 1 1.454-1.455h8.728a1.454 1.454 0 0 1 1.454 1.455v10.181A1.455 1.455 0 0 1 20.364 32Zm-7.273-2.909h5.818v-7.273h-5.818v7.273Z" fill="#E9793A"/></symbol><symbol fill="none" id="sprite-benefits-4" viewBox="0 0 40 26"><title>benefits-4</title><rect x="1.25" y="1.25" width="37.5" height="23.5" rx="1.75" stroke="#E9793A" stroke-width="2.5" stroke-linecap="round" stroke-linejoin="round"/><path d="M1.667 6.5h36.666M6.74 13.054h9.094m-9.094 3.9h4.928M25.833 19.5l8.334-8.125" stroke="#E9793A" stroke-width="2.5" stroke-linecap="round"/><path d="M28.167 12.188c0 .77-.648 1.437-1.5 1.437-.853 0-1.5-.667-1.5-1.438 0-.77.647-1.437 1.5-1.437.852 0 1.5.667 1.5 1.438Zm6.666 6.5c0 .77-.647 1.437-1.5 1.437-.852 0-1.5-.667-1.5-1.438 0-.77.648-1.437 1.5-1.437.853 0 1.5.667 1.5 1.438Z" stroke="#E9793A" stroke-width="2"/></symbol><symbol fill="none" id="sprite-buyBtn" viewBox="0 0 21 20"><title>buyBtn</title><g clip-path="url(#a)" stroke="#3A9EFD" stroke-width="2" stroke-miterlimit="10"><path d="M1.69 8c-.07-.345.206-.759.551-.828h17.104c.414 0 .69.276.69.69V8L18.24 18.345c-.069.345-.345.552-.69.552H4.173c-.344 0-.62-.207-.69-.552L1.69 8Z"/><path d="M8.448.965 5.69 6.483M13.276.965l2.759 5.518-2.76-5.518Z" stroke-linecap="round" stroke-linejoin="round"/></g><defs><clipPath id="a"><path fill="#fff" d="M0 0h21v20H0z"/></clipPath></defs></symbol><symbol fill="none" id="sprite-buying" viewBox="0 0 21 20"><title>buying</title><g clip-path="url(#a)" stroke="#3A9EFD" stroke-width="2" stroke-miterlimit="10"><path d="M1.69 8c-.07-.345.206-.759.551-.828h17.104c.414 0 .69.276.69.69V8L18.24 18.345c-.069.345-.345.552-.69.552H4.173c-.344 0-.62-.207-.69-.552L1.69 8Z"/><path d="M8.448.965 5.69 6.483M13.276.965l2.759 5.518-2.76-5.518Z" stroke-linecap="round" stroke-linejoin="round"/></g><defs><clipPath id="a"><path fill="#fff" d="M0 0h21v20H0z"/></clipPath></defs></symbol><symbol fill="none" id="sprite-chat" viewBox="0 0 40 40"><title>chat</title><path d="M16.667 5h6.666a13.333 13.333 0 1 1 0 26.667V37.5c-8.333-3.333-20-8.333-20-19.167A13.333 13.333 0 0 1 16.667 5Z" fill="#E77E42"/></symbol><symbol fill="none" id="sprite-facebook" viewBox="0 0 12 24"><title>facebook</title><path d="M8 13.8h2.857L12 9H8V6.6c0-1.236 0-2.4 2.286-2.4H12V.168C11.627.116 10.22 0 8.735 0 5.632 0 3.429 1.988 3.429 5.64V9H0v4.8h3.429V24H8V13.8Z" fill="#fff"/></symbol><symbol fill="none" id="sprite-fav" viewBox="0 0 32 32"><title>fav</title><path d="m15.885 6.798.672.587.66-.601c2.712-2.473 7.108-2.358 9.709.239a6.989 6.989 0 0 1 .25 9.678L16.535 27.578 5.779 16.84c-2.48-2.855-2.339-7.1.246-9.681 2.739-2.735 7.01-2.85 9.86-.36Z"/></symbol><symbol fill="none" id="sprite-inst" viewBox="0 0 24 24"><title>inst</title><path d="M11.625 8.4c-.925 0-1.812.38-2.466 1.054A3.66 3.66 0 0 0 8.137 12c0 .955.368 1.87 1.022 2.546a3.433 3.433 0 0 0 2.466 1.054c.925 0 1.812-.38 2.466-1.054A3.66 3.66 0 0 0 15.113 12a3.66 3.66 0 0 0-1.022-2.546A3.433 3.433 0 0 0 11.625 8.4Zm0-2.4c1.542 0 3.02.632 4.11 1.757A6.1 6.1 0 0 1 17.438 12a6.1 6.1 0 0 1-1.703 4.243A5.722 5.722 0 0 1 11.625 18a5.722 5.722 0 0 1-4.11-1.757A6.1 6.1 0 0 1 5.813 12a6.1 6.1 0 0 1 1.702-4.243A5.722 5.722 0 0 1 11.625 6Zm7.556-.3c0 .398-.153.78-.425 1.06a1.43 1.43 0 0 1-1.028.44 1.43 1.43 0 0 1-1.027-.44 1.525 1.525 0 0 1-.426-1.06c0-.398.153-.78.426-1.06a1.43 1.43 0 0 1 1.027-.44c.385 0 .755.158 1.028.44.272.28.425.662.425 1.06Zm-7.556-3.3c-2.876 0-3.346.008-4.684.07-.911.044-1.523.17-2.09.398a3.347 3.347 0 0 0-1.255.844 3.48 3.48 0 0 0-.819 1.296c-.22.588-.343 1.218-.385 2.157-.06 1.325-.067 1.788-.067 4.835 0 2.969.008 3.454.067 4.835.043.94.166 1.572.385 2.156.198.522.43.898.816 1.296.392.403.756.645 1.256.844.574.229 1.186.356 2.092.4 1.284.062 1.732.069 4.684.069 2.876 0 3.346-.008 4.684-.07.909-.044 1.521-.17 2.089-.397.503-.203.87-.444 1.255-.842.392-.405.626-.78.819-1.296.22-.592.344-1.224.386-2.16.06-1.325.067-1.788.067-4.835 0-2.969-.008-3.454-.067-4.835-.043-.938-.166-1.572-.386-2.157a3.506 3.506 0 0 0-.818-1.296 3.345 3.345 0 0 0-1.255-.845c-.57-.228-1.181-.354-2.09-.397-1.284-.063-1.732-.07-4.684-.07Zm0-2.4c3.159 0 3.553.012 4.792.072 1.238.06 2.08.26 2.822.558a5.653 5.653 0 0 1 2.06 1.384 5.913 5.913 0 0 1 1.34 2.126c.288.764.483 1.636.541 2.914.055 1.279.07 1.686.07 4.946s-.012 3.667-.07 4.946c-.058 1.278-.253 2.148-.54 2.914a5.882 5.882 0 0 1-1.34 2.126 5.7 5.7 0 0 1-2.06 1.384c-.741.296-1.585.498-2.823.558-1.24.056-1.634.072-4.792.072-3.159 0-3.553-.012-4.792-.072-1.238-.06-2.08-.262-2.822-.558a5.67 5.67 0 0 1-2.06-1.384A5.907 5.907 0 0 1 .61 19.86c-.289-.764-.483-1.636-.541-2.914C.015 15.667 0 15.26 0 12s.012-3.667.07-4.946c.058-1.28.252-2.148.54-2.914a5.878 5.878 0 0 1 1.34-2.126A5.679 5.679 0 0 1 4.01.63C4.753.332 5.595.132 6.834.072 8.073.016 8.466 0 11.625 0Z" fill="#fff"/></symbol><symbol fill="none" id="sprite-location" viewBox="0 0 12 14"><title>location</title><g clip-path="url(#a)"><path d="M9.982 9.935 5.834 14 1.686 9.871a5.783 5.783 0 0 1 0-8.194c2.268-2.258 5.963-2.258 8.231 0 2.334 2.323 2.334 5.936.065 8.258ZM5.834 7.742c1.102 0 1.944-.839 1.944-1.936 0-1.096-.842-1.935-1.944-1.935-1.102 0-1.944.839-1.944 1.935 0 1.097.842 1.936 1.944 1.936Z" fill="#7B94B0"/></g><defs><clipPath id="a"><path fill="#fff" d="M0 0h11.667v14H0z"/></clipPath></defs></symbol><symbol id="sprite-login-popup-social-1" viewBox="0 0 24 25"><title>login-popup-social-1</title><path d="M3.064 8.01A9.996 9.996 0 0 1 12 2.5c2.695 0 4.959.99 6.69 2.605l-2.867 2.868C14.786 6.982 13.468 6.477 12 6.477c-2.605 0-4.81 1.76-5.595 4.123-.2.6-.314 1.24-.314 1.9 0 .66.114 1.3.314 1.9.786 2.364 2.99 4.123 5.595 4.123 1.345 0 2.49-.355 3.386-.955a4.601 4.601 0 0 0 1.996-3.018H12v-3.868h9.418c.118.654.182 1.336.182 2.045 0 3.046-1.09 5.61-2.982 7.35C16.964 21.605 14.7 22.5 12 22.5A9.998 9.998 0 0 1 3.064 8.01Z"/></symbol><symbol id="sprite-login-popup-social-2" viewBox="0 0 12 25"><title>login-popup-social-2</title><path d="M8 14.3h2.857L12 9.5H8V7.1c0-1.236 0-2.4 2.286-2.4H12V.668C11.627.616 10.22.5 8.735.5 5.632.5 3.429 2.488 3.429 6.14V9.5H0v4.8h3.429v10.2H8V14.3Z"/></symbol><symbol fill="none" id="sprite-logo" viewBox="0 0 114 41"><title>logo</title><g clip-path="url(#a)" fill-rule="evenodd" clip-rule="evenodd" fill="#2C9323"><path d="M111.763 2.453a7.437 7.437 0 0 0-10.488 0L76.385 27.79a7.86 7.86 0 0 0 0 10.933 7.412 7.412 0 0 0 5.33 2.269 7.396 7.396 0 0 0 5.332-2.269l24.716-25.3a7.896 7.896 0 0 0 0-10.969Z"/><path d="M51.704 2.453A7.445 7.445 0 0 1 57.034.2a7.43 7.43 0 0 1 5.332 2.253L87.082 27.79a7.86 7.86 0 0 1 0 10.933 7.41 7.41 0 0 1-5.331 2.269 7.395 7.395 0 0 1-5.332-2.269l-24.715-25.3a7.86 7.86 0 0 1 0-10.969Z"/><path d="M62.401 2.453A7.41 7.41 0 0 0 57.07.185a7.396 7.396 0 0 0-5.331 2.268L27.023 27.789a7.86 7.86 0 0 0 0 10.933 7.445 7.445 0 0 0 5.331 2.253 7.43 7.43 0 0 0 5.331-2.253l24.716-25.336a7.86 7.86 0 0 0 0-10.933Z"/><path d="M2.202 2.278A7.446 7.446 0 0 1 7.534.025a7.43 7.43 0 0 1 5.33 2.253L37.58 27.614a7.86 7.86 0 0 1 0 10.933 7.445 7.445 0 0 1-5.33 2.253 7.43 7.43 0 0 1-5.332-2.253L2.202 13.211a7.86 7.86 0 0 1 0-10.933Z"/></g><defs><clipPath id="a"><path fill="#fff" d="M0 0h114v41H0z"/></clipPath></defs></symbol><symbol fill="none" id="sprite-message" viewBox="0 0 40 40"><title>message</title><path d="M8.333 8h24a1.334 1.334 0 0 1 1.334 1.333v21.334A1.334 1.334 0 0 1 32.333 32h-24A1.334 1.334 0 0 1 7 30.667V9.333A1.333 1.333 0 0 1 8.333 8ZM31 13.65l-10.57 9.467-10.763-9.496v15.712H31V13.651Zm-20.652-2.983 10.067 8.882 9.921-8.882H10.348Z" fill="#E77E42"/></symbol><symbol fill="none" id="sprite-play" viewBox="0 0 17 20"><title>play</title><path d="M0 18.207V1.704A1 1 0 0 1 1.488.831l14.027 7.84a1 1 0 0 1 .038 1.723L1.525 19.058A1 1 0 0 1 0 18.207Z" fill="#fff"/></symbol><symbol id="sprite-question" viewBox="0 0 14 14"><title>question</title><path d="M7 13.667A6.667 6.667 0 1 1 7 .334a6.667 6.667 0 0 1 0 13.333Zm0-1.334A5.333 5.333 0 1 0 7 1.667a5.333 5.333 0 0 0 0 10.666ZM6.333 9h1.334v1.333H6.333V9Zm1.334-1.097v.43H6.333v-1A.667.667 0 0 1 7 6.667a1 1 0 1 0-.98-1.196l-1.31-.262a2.334 2.334 0 1 1 2.956 2.694Z"/></symbol><symbol fill="none" id="sprite-search-popup-close" viewBox="0 0 26 26"><title>search-popup-close</title><path d="m1 1 24 24M1 25 25 1"/></symbol><symbol fill="none" id="sprite-search" viewBox="0 0 32 32"><title>search</title><circle cx="14" cy="14" r="10" stroke="#202454" stroke-width="2" stroke-miterlimit="10"/><path stroke="#202454" stroke-width="2" stroke-miterlimit="10" stroke-linecap="round" d="M21.414 21 28 27.586"/></symbol><symbol id="sprite-star-low" viewBox="0 0 12 12"><title>star-low</title><path d="M5.53 1.3a.5.5 0 0 1 .94 0l1.106 3.054a.5.5 0 0 0 .453.33l3.248.107a.5.5 0 0 1 .29.894L9.003 7.681a.5.5 0 0 0-.173.533l.901 3.122a.5.5 0 0 1-.76.553l-2.69-1.822a.5.5 0 0 0-.561 0l-2.69 1.822a.5.5 0 0 1-.761-.553l.9-3.122a.5.5 0 0 0-.172-.533L.433 5.685a.5.5 0 0 1 .29-.894l3.248-.107a.5.5 0 0 0 .453-.33L5.53 1.3Z"/></symbol><symbol id="sprite-star" viewBox="0 0 12 12"><title>star</title><path d="M5.53 1.3a.5.5 0 0 1 .94 0l1.106 3.054a.5.5 0 0 0 .453.33l3.248.107a.5.5 0 0 1 .29.894L9.003 7.681a.5.5 0 0 0-.173.533l.901 3.122a.5.5 0 0 1-.76.553l-2.69-1.822a.5.5 0 0 0-.561 0l-2.69 1.822a.5.5 0 0 1-.761-.553l.9-3.122a.5.5 0 0 0-.172-.533L.433 5.685a.5.5 0 0 1 .29-.894l3.248-.107a.5.5 0 0 0 .453-.33L5.53 1.3Z"/></symbol><symbol id="sprite-submenu-icon-1" viewBox="0 0 25 27"><title>submenu-icon-1</title><path d="M1.636 24.992C1.118 18.19 3.553 2.165 5.263 1.543c.583-.212 2.268 2.072 2.85 4.21l4.989-.647C13.684 3.875 15.174.73 15.627.7c.777-.052 1.425 4.08 2.073 7.255 1.036-.13 2.008-.195 2.98-.332m-3.952 19.894-.648-8.939c2.527-.518 6.31-1.671 6.672-1.878.363-.208.972-3.822 1.102-6.802M20.68 7.624s2.701-.37 2.916-.187c.272.234.276 1.254.259 2.462M20.68 7.624c-.064.98.071 1.763.454 2.145.518.518 2 .222 2.72.13"/><path d="M10.586 10.057a.99.99 0 0 1-.157.557c-.094.135-.206.195-.308.195-.101 0-.213-.06-.306-.195a.99.99 0 0 1-.158-.557.99.99 0 0 1 .158-.557c.093-.136.205-.195.306-.195.102 0 .214.059.308.195a.99.99 0 0 1 .157.557Zm4.016-.519a.99.99 0 0 1-.157.557c-.094.136-.206.195-.307.195-.102 0-.213-.059-.307-.194a.99.99 0 0 1-.157-.558.99.99 0 0 1 .157-.557c.094-.135.205-.195.307-.195.101 0 .213.06.307.195a.99.99 0 0 1 .157.557Z"/></symbol><symbol id="sprite-submenu-icon-2" viewBox="0 0 25 25"><title>submenu-icon-2</title><path d="M3.98 23.91C1.988 13.822 5.276 1.445 6.571.72c.583-.327 2.008 1.83 3.11 3.385h7.19c.713-.777 1.982-3.239 2.656-3.239.842 0 1.425 8.616 1.036 11.013-.195 1.207-1.425 3.044-1.684 3.368 1.684 1.36 5.377 5.636 5.377 7.384"/><ellipse cx="10.069" cy="9.316" rx=".648" ry=".936"/><ellipse cx="16.159" cy="9.316" rx=".648" ry=".936"/><path d="M13.78 11.813a.48.48 0 0 1-.758-.019.48.48 0 0 1 .392-.768.479.479 0 0 1 .366.787ZM1.595 9.239l4.794.648m.208 2.315-6.477.647m18.686-2.962 4.017-.519m-4.148 2.839 5.441.777"/></symbol><symbol id="sprite-submenu-icon-3" viewBox="0 0 24 28"><title>submenu-icon-3</title><path d="M18.219 9.863c2.137 0 6.672 3.238 4.016 7.708-.222.374-1.043-1.205-2.591-1.36-1.166-.117-1.082.175-2.008.26-.801.072-1.598-.778-1.943-1.167"/><path d="M1.312 25.086c.777-7.58 4.08-16 4.08-16s-2.746-3.798.065-7.644c.056-.076 2.624 4.628 6.608 5.053 1.813.193 5.034.23 5.765.648 1.36.777.389 2.353 0 2.98m-1.101 17.36-1.62-7.903m-1.554-.324c2.461.907 5.389-.92 5.7-3.304"/><ellipse cx="11.222" cy="12.26" rx=".713" ry="1.036"/></symbol><symbol id="sprite-submenu-icon-4" viewBox="0 0 21 27"><title>submenu-icon-4</title><g opacity=".9"><ellipse cx="13.109" cy="15.61" rx=".648" ry=".936"/><path d="M3.069 26.399c0-4.617 2.72-13.085 2.72-13.085C.801 10.287.663 1.654 1.384 1.654c2.397 0 8.616 3.768 9.134 8.42.021.194 9.522 1.102 9.263 6.284a3.339 3.339 0 0 1-.154.842m-6.907 5.442c.602-.163 1.773-.456 2.591-.86m0 0c.346 1.345.532 4.176.584 4.746m-.583-4.746c1.843-.91 3.743-2.77 4.315-4.582m0 0c.03-.323-.817-.701-2.048-.971"/><path d="M13.433 10.787c1.23-4.534-3.003-9.752-3.498-9.587-.389.13-1.48 1.778-1.953 4.146"/></g></symbol><symbol id="sprite-submenu-procent" viewBox="0 0 32 32"><title>submenu-procent</title><path d="M6.963 9.922c0-1.221.396-2.21 1.19-2.967.792-.766 1.831-1.148 3.117-1.148 1.303 0 2.351.378 3.144 1.134.793.748 1.19 1.764 1.19 3.05v.984c0 1.23-.397 2.219-1.19 2.966-.793.748-1.832 1.121-3.117 1.121-1.294 0-2.343-.373-3.145-1.12-.793-.757-1.19-1.773-1.19-3.05v-.97Zm2.625 1.053c0 .546.155.989.465 1.326.319.328.733.492 1.244.492.51 0 .916-.169 1.217-.506.3-.337.45-.788.45-1.353V9.922c0-.547-.15-.99-.45-1.326-.301-.338-.716-.506-1.244-.506-.502 0-.907.168-1.217.506-.31.328-.465.788-.465 1.38v.999Zm6.89 10.144c0-1.23.402-2.22 1.204-2.967.802-.756 1.84-1.134 3.117-1.134 1.294 0 2.338.373 3.13 1.12.803.739 1.204 1.76 1.204 3.063v.985c0 1.22-.392 2.21-1.176 2.966-.784.748-1.827 1.121-3.13 1.121-1.313 0-2.366-.378-3.159-1.134-.793-.757-1.19-1.76-1.19-3.008v-1.012Zm2.625 1.067c0 .5.165.93.493 1.285.328.355.738.533 1.23.533 1.112 0 1.668-.615 1.668-1.846V21.12c0-.547-.155-.984-.465-1.312-.31-.338-.72-.506-1.23-.506s-.92.168-1.23.506c-.31.328-.465.779-.465 1.353v1.026Zm-7.027 2.324-1.928-1.04L19.87 7.913l1.928 1.04-9.72 15.558Z" stroke="#202454"/></symbol><symbol id="sprite-submenu-star" viewBox="0 0 24 22"><title>submenu-star</title><path d="m12 0 2.694 8.292h8.719l-7.054 5.124 2.694 8.292L12 16.584l-7.053 5.124 2.694-8.292L.587 8.292h8.719L12 0Z" stroke="#202454"/></symbol><symbol fill="none" id="sprite-updateBtn" viewBox="0 0 20 20"><title>updateBtn</title><rect width="20" height="20" rx="10" fill="#E95471"/><path d="M10.31 14.626h1.703l-2.196 2.196L10.995 18l4.226-4.225-.027-.027.026-.026-4.218-4.22-1.178 1.179 2.283 2.282H10.31a3.652 3.652 0 0 1-3.647-3.646 3.658 3.658 0 0 1 3.647-3.654 3.652 3.652 0 0 1 3.646 3.647h1.664A5.316 5.316 0 0 0 10.31 4 5.316 5.316 0 0 0 5 9.31c0 2.928 2.382 5.316 5.31 5.316Z" fill="#fff"/></symbol><symbol fill="none" id="sprite-user" viewBox="0 0 22 26"><title>user</title><g clip-path="url(#a)"><circle cx="11" cy="8" r="6"/><path d="M1 24a6 6 0 0 1 6-6h8a6 6 0 0 1 6 6v3H1v-3Z"/></g><defs><clipPath id="a"><path fill="#fff" d="M0 0h22v26H0z"/></clipPath></defs></symbol><symbol fill="none" id="sprite-userBuying" viewBox="0 0 32 32"><title>userBuying</title><path d="M2 12.6c-.1-.5.3-1.1.8-1.2h24.8c.6 0 1 .4 1 1v.2l-2.6 15c-.1.5-.5.8-1 .8H5.6c-.5 0-.9-.3-1-.8L2 12.6Zm9.8-10.2-4 8m11-8 4 8-4-8Z"/></symbol><symbol fill="none" id="sprite-viber" viewBox="0 0 23 24"><title>viber</title><path d="M21.3 13.05c.3-2.7.3-4.95 0-6.9a7.05 7.05 0 0 0-2.1-4.05L18 1.35l-2.7-.9C14.1.15 12.6 0 11.1 0h-.6a22.95 22.95 0 0 0-6.15 1.05c-.9.3-1.5.75-2.1 1.2C.75 3.75.15 6 0 9.15v2.1l.15 2.25.75 2.25a6 6 0 0 0 4.05 3.3c.046 1.65.096 3.3.15 4.95l.45-.15 3.6-4.35a25.96 25.96 0 0 0 8.1-.9 49.621 49.621 0 0 0 1.8-1.05l1.05-1.05.75-1.5.45-2.1v.15ZM14.1 9c0 .3-.15.45-.45.45L13.5 9c0-1.2-.6-1.8-1.65-1.8l-.3-.15V6.6h.3c1.5 0 2.25.75 2.4 2.25L14.1 9Zm1.05.6c0-1.05-.3-2.1-1.05-2.85s-1.65-1.2-3-1.2l-.3-.3v-.3l.45-.15c1.5 0 2.55.6 3.3 1.5.9.9 1.2 2.1 1.2 3.3v.3h-.45l-.15-.3Zm2.4.75-.15.3h-.3l-.15-.3c0-2.1-.75-3.6-1.95-4.8a6 6 0 0 0-4.5-1.8c-.15 0-.3 0-.3-.3s.15-.45.3-.45a7.05 7.05 0 0 1 7.05 7.2v.15Zm-.6 5.1-1.2 1.5c-.45.3-1.05.45-1.5.15a21.301 21.301 0 0 1-5.4-3A13.65 13.65 0 0 1 5.1 9.6c-.5-.875-.95-1.776-1.35-2.7v-.15c-.15-.6 0-1.05.3-1.5l1.5-1.35c.45-.15.9 0 1.2.3A48.45 48.45 0 0 0 8.4 6.6c.45.6.3 1.05 0 1.5l-.75.3-.3.3v.9l.6.9.75 1.2 1.2 1.05 1.8.9c.3 0 .6 0 .75-.3l.6-.6c.3-.45.75-.6 1.35-.3l2.4 1.8c.3.3.45.75.15 1.2Z" fill="#fff"/></symbol></svg>